<svg width="640" height="480" xmlns="http://www.w3.org/2000/svg" xmlns:svg="http://www.w3.org/2000/svg">
 <!-- Created with SVG-edit - https://github.com/SVG-Edit/svgedit-->
 <g class="layer">
  <title>Layer 1</title>
  <ellipse cx="293.4" cy="125.2" fill="#ffffaa" id="svg_1" rx="87" ry="78" stroke="#000000"/>
  <rect fill="#aad4ff" height="101" id="svg_2" stroke="#000000" width="157" x="92.4" y="159.2"/>
  <path d="m296.4,87.2c0.78,-0.88 -0.23,-1.1 -0.64,-1.7c-0.56,-0.82 -0.35,-1.78 -0.36,-2.64c0,-0.89 -0.67,-1.46 -0.98,-2.17c-0.35,-0.81 0.02,-1.78 -0.02,-2.68c-0.04,-0.89 -0.7,-1.49 -1,-2.32c-0.34,-0.94 -0.57,-1.68 -1.1,-2.46c-0.51,-0.74 -0.75,-1.54 -0.91,-2.42c-0.15,-0.83 -0.87,-1.35 -1.81,-1.57c-1,-0.23 -1.66,-0.63 -2.51,-0.86c-0.9,-0.25 -1.72,-0.16 -2.74,-0.17c-0.68,0 -1.76,0 -2.58,0c-0.88,0 -1.6,0 -2.39,0c-1.26,0 -1.93,0 -2.95,0c-0.8,0 -1.6,0 -2.6,0c-0.92,0 -1.8,-0.07 -2.73,0.22c-0.7,0.22 -1.65,0.71 -2.41,0.77c-0.93,0.07 -1.97,0.01 -2.75,0.01c-0.75,0 -1.91,0 -2.68,0c-0.86,0 -1.81,0 -2.59,0c-0.9,0 -1.79,0.32 -2.42,0.72c-0.75,0.48 -1.99,-0.1 -2.67,0.45c-0.69,0.57 -0.73,1.48 -1.47,2.13c-0.66,0.58 -1.46,0.91 -1.87,1.7c-0.35,0.67 -0.54,1.55 -0.89,2.29c-0.39,0.83 -0.94,1.32 -0.95,2.21c-0.01,0.9 -0.35,1.65 -0.88,2.38c-0.47,0.65 -0.76,1.4 -0.95,2.45c-0.17,0.96 -0.14,1.65 -0.22,2.3c-0.17,1.32 -0.69,1.87 -0.91,2.78c-0.21,0.89 -0.04,1.83 -0.04,2.57c0,1.04 0,1.81 0,2.77c0,0.73 0,1.9 0,2.59c0,1.14 0,1.69 0,2.64c0,0.64 0,1.95 0,2.74c0,0.91 0,1.66 0,2.66c0,0.8 0,1.8 0,2.58c0,1 0,2.02 0,2.69c0,1.1 0,1.83 0,2.56c0,1.1 0,1.97 0,2.74c0,1.03 -0.03,1.78 0,2.89c0.02,0.76 0.29,1.63 0.54,2.25c0.35,0.84 0.78,1.98 0.94,2.43c0.34,0.96 0.51,1.47 0.86,2.45c0.48,1.35 0.76,2.07 1.01,2.66c0.36,0.87 0.57,1.88 0.87,2.68c0.34,0.89 0.92,1.55 1.6,2.04c0.66,0.47 1.56,1.04 2.06,1.52c0.79,0.77 1.37,1.39 1.8,1.89c0.75,0.86 1.26,1.53 1.81,2.21c0.54,0.66 1.31,1.55 1.81,1.96c0.62,0.51 1.56,0.79 2.31,1.12c0.92,0.4 1.4,0.98 1.98,1.54c0.8,0.79 1.29,1.48 2.23,2.06c0.64,0.4 1.51,0.46 2.44,0.79c0.56,0.2 1.74,0.86 2.33,1.31c0.6,0.46 1.13,0.98 1.63,1.46c0.96,0.95 1.4,1.53 2.17,2.16c0.75,0.6 1.52,0.73 2.25,1.32c0.55,0.44 1.33,1.27 1.94,1.88c0.61,0.61 1.28,1.24 2.06,1.71c0.63,0.37 1.69,0.87 2.35,1.2c0.83,0.41 1.82,0.11 2.56,0.54c0.7,0.4 0.88,1.41 1.46,1.98c0.5,0.5 1.24,1.52 2.08,1.86c0.84,0.33 1.82,-0.26 2.54,0.18c0.74,0.45 1.05,1.38 1.75,1.93c0.62,0.49 0.59,1.28 0.83,2.44c0.12,0.56 0.4,1.53 0.58,2.32c0.21,0.92 0.4,2 0.49,2.58c0.1,0.61 0.27,1.88 0.35,2.54c0.08,0.66 0.2,1.97 0.24,2.62c0.08,1.26 0.09,1.86 0.1,2.46c0.02,1.14 0.01,1.69 0.02,3.22c0,0.93 0.03,1.8 0.07,2.22c0.08,0.82 0.35,2.03 0.63,2.81c0.28,0.76 0.81,1.73 1.12,2.76c0.22,0.73 0.17,1.66 0.17,2.56c0.01,0.89 0.62,1.4 1.06,0.99c0.78,-0.74 1.31,-1.62 1.64,-2.09c0.35,-0.5 1.06,-1.56 1.42,-2.12c0.72,-1.11 1.06,-1.65 1.72,-2.71c0.31,-0.51 0.61,-1 1.15,-1.95c0.25,-0.44 0.89,-1.67 1.21,-2.4c0.44,-0.99 0.67,-1.62 1.13,-2.51c0.48,-0.91 0.87,-1.49 1.19,-2.1c0.63,-1.18 0.88,-1.79 1.12,-2.7c0.24,-0.89 0.31,-1.8 0.39,-2.74c0.06,-0.65 0.18,-1.69 0.34,-2.44c0.18,-0.83 0.45,-1.76 0.61,-2.27c0.35,-1.13 0.8,-2.39 1.03,-3.07c0.24,-0.7 0.5,-1.41 0.74,-2.12c0.25,-0.71 0.5,-1.41 0.92,-2.77c0.2,-0.63 0.52,-1.82 0.67,-2.38c0.28,-1.05 0.37,-1.56 0.83,-2.95c0.3,-0.9 0.49,-1.34 0.88,-2.27c0.2,-0.5 0.66,-1.6 1.13,-2.9c0.26,-0.73 0.52,-1.5 0.79,-2.31c0.27,-0.83 0.55,-1.67 0.82,-2.5c0.27,-0.82 0.52,-1.61 1.06,-3.02c0.24,-0.62 0.47,-1.17 0.7,-1.67c0.39,-0.86 0.84,-1.54 1.22,-2.8c0.18,-0.58 0.18,-1.5 0.58,-2.53c0.29,-0.75 0.96,-1.28 1.42,-2.37c0.31,-0.72 0.24,-1.63 0.24,-2.46c0,-0.86 0,-1.57 0,-2.66c0,-0.97 0,-1.88 0,-2.54c0,-1.18 0,-1.8 0,-2.77c0,-0.86 0,-1.8 0,-2.76c0,-0.91 0,-1.57 0,-2.61c0,-0.78 0,-1.82 0,-2.75c0,-0.63 0,-1.64 0,-2.58c0,-0.6 0,-1.74 0,-2.67c0,-0.49 0,-1.49 0.08,-2.45c0.1,-1.25 0.25,-1.92 0.53,-2.77c0.36,-1.11 0.6,-1.74 0.78,-2.43c0.19,-0.72 0.37,-1.45 0.53,-2.85c0.07,-0.64 0.08,-1.53 0.09,-2.57c0,-0.9 0,-1.92 0,-2.71c0,-0.73 0,-1.71 0,-2.7c0,-0.76 0,-1.68 0,-2.47c0,-0.82 0,-1.88 0,-2.8c0,-0.76 0,-1.8 0,-2.77c0,-0.88 0.2,-1.8 0,-2.68c-0.18,-0.81 -1.13,-0.99 -1.8,-1.6c-0.62,-0.57 -0.94,-1.48 -1.42,-2.3c-0.37,-0.63 -1.42,-0.86 -2.19,-1.34c-0.8,-0.5 -1.44,-0.96 -1.99,-1.32c-0.81,-0.54 -1.58,-1.28 -2.28,-1.67c-0.7,-0.39 -1.55,-0.53 -2.42,-0.56c-1.19,-0.05 -1.79,-0.01 -2.62,-0.01c-1.13,0 -1.92,0 -2.81,0c-0.98,0 -1.77,0 -2.77,0c-0.84,0 -1.88,-0.17 -2.57,0.26c-0.72,0.44 -1.11,1.27 -1.63,1.98c-0.59,0.8 -1.18,1.49 -1.5,2.29c-0.32,0.79 -1.07,1.41 -1.54,2.08c-0.51,0.72 -0.3,1.74 -0.66,2.5c-0.36,0.78 -0.81,1.61 -1.2,2.3c-0.47,0.82 -0.57,1.77 -0.57,2.6l0,0.98" fill="none" id="svg_3" stroke="#ffaaaa"/>
 </g>
</svg>